<svg width="16" height="16" viewBox="0 0 16 16" fill="none" xmlns="http://www.w3.org/2000/svg">
<g clip-path="url(#clip0_7376_49)">
<path d="M0 0V14H5V12.0785C4.69855 11.994 4.3476 11.9569 4.25781 11.7773C3.85058 10.9648 4.95117 10.7559 4.95117 10.1055C4.95117 9.94531 4.86908 9.61719 4.61719 9.5918C4.26557 9.55658 4.17377 9.7461 3.82031 9.7461C3.60156 9.7461 3.38281 9.60346 3.38281 9.38666C3.38281 9 3.6914 8.82031 3.6914 8.4336C3.6914 8.1836 3.58886 8.04096 3.58886 7.79096C3.58886 7.45118 3.83978 7.14838 4.17968 7.14838C4.50201 7.14838 4.64257 7.41211 4.79687 7.6875C4.92578 7.91986 5.15039 7.99609 5.41406 7.99609C5.90332 7.99609 6.21191 7.38665 6.21191 7.01947C6.21191 6.76947 6.39837 6.53131 6.64941 6.53131C6.99609 6.53131 7.125 6.89056 7.47271 6.89056C8.04388 6.89056 8.02337 6.13476 8.52636 5.86126C9.14361 5.52929 8.96386 4.80859 8.88671 4.42187C8.85351 4.25201 9.17681 3.92187 9.3496 3.93359C10.0703 3.98437 9.76171 3.39447 9.76171 3.11126C9.76171 3.05859 9.76946 3.01165 9.78417 2.9688C9.8955 2.63665 10.3789 2.5313 10.3789 2.1328C10.3789 1.85155 10.1465 1.72264 10.1465 1.4395C10.1465 1.28697 10.2303 1.14012 10.3665 0.99999H13V6.99999H14V0H0ZM9.25781 2.00684C9.10644 2.15332 8.93359 2.35938 8.83593 2.65039C8.78905 2.78809 8.76366 2.9375 8.76171 3.0918C8.4912 3.22657 8.31249 3.417 8.22558 3.52246C7.94726 3.86035 7.83398 4.24805 7.90527 4.61328C7.93261 4.75 7.96777 4.92187 7.97168 5.02734C7.65625 5.2207 7.46094 5.47558 7.32324 5.69629C7.14062 5.60352 6.91894 5.53125 6.64941 5.53125C5.99121 5.53125 5.43457 5.99121 5.26562 6.61719C5.02441 6.36426 4.68164 6.14844 4.17968 6.14844C3.30273 6.14844 2.58886 6.88574 2.58886 7.79102C2.58886 8.04493 2.70232 8.08393 2.67284 8.36524C2.64336 8.64655 2.3828 8.90003 2.3828 9.38672C2.3828 9.98633 2.79589 10.4971 3.36718 10.6768C3.15722 11.0605 3.04296 11.585 3.36425 12.2256C3.50683 12.5117 3.99999 13 3.89776 13H1V1H9.27777C9.26507 1.07715 9.14648 1.35645 9.14648 1.43945C9.14648 1.66797 9.19726 1.85743 9.25781 2.00684ZM15.5 10H15V9L14 8H11V7H9V8H8L7 9V10H6.5C6.22498 10 6 10.225 6 10.5V12.5C6 12.775 6.22498 13 6.5 13H7V15L8 16H14L15 15V13H15.5C15.775 13 16 12.775 16 12.5V10.5C16 10.225 15.775 10 15.5 10ZM14 14.5859L13.5859 15H8.41406L8 14.5859V9.41406L8.41406 9H13.5859L14 9.41406V14.5859ZM11 10C9.89545 10 9 10.8954 9 12C9 13.1046 9.89545 14 11 14C12.1046 14 13 13.1046 13 12C13 10.8954 12.1046 10 11 10ZM11 13C10.4482 13 10 12.5518 10 12C10 11.4482 10.4482 11 11 11C11.5518 11 12 11.4482 12 12C12 12.5518 11.5518 13 11 13Z" fill="#6B6B6B"/>
</g>
<defs>
<clipPath id="clip0_7376_49">
<rect width="16" height="16" fill="white"/>
</clipPath>
</defs>
</svg>
